<svg xmlns="http://www.w3.org/2000/svg" xmlns:xlink="http://www.w3.org/1999/xlink" width="500" zoomAndPan="magnify" viewBox="0 0 375 374.999991" height="500" preserveAspectRatio="xMidYMid meet" version="1.0"><defs><clipPath id="id1"><path d="M 44 42.375 L 331 42.375 L 331 328 L 44 328 Z M 44 42.375 " clip-rule="nonzero"/></clipPath></defs><g clip-path="url(#id1)"><path fill="#ff5722" d="M 231.316406 316.148438 L 231.097656 310.664062 C 259.003906 296.367188 278.273438 266.140625 281.378906 261.046875 C 289.3125 256.433594 301.742188 246.6875 307.570312 242.019531 C 307.585938 245.984375 306.265625 252.804688 300.832031 263.976562 C 283.871094 288.335938 259.414062 306.6875 231.316406 316.148438 Z M 324 205.3125 C 322.128906 218.121094 318.542969 230.242188 313.519531 241.511719 C 313.472656 238.738281 312.933594 236.738281 312.257812 235.320312 C 315.546875 224.285156 318.558594 202.109375 319.792969 192.316406 C 322.242188 188.605469 324.050781 184.527344 325.382812 180.453125 C 325.675781 188.632812 325.21875 196.941406 324 205.3125 Z M 322.984375 159.273438 C 322.71875 166.042969 321.519531 176.449219 317.070312 185.296875 C 311.46875 182.066406 300.351562 176.539062 294.839844 173.835938 C 290.507812 151.773438 266.351562 113.828125 265.332031 112.207031 L 264.546875 115.984375 L 259.199219 114.273438 C 259.464844 114.671875 286.914062 157.085938 289.488281 177.363281 C 278.480469 203.144531 267.644531 215.332031 263.5 219.375 C 244.257812 217.773438 213.75 214.992188 204.789062 214.179688 C 202.859375 203.40625 190.265625 169.703125 183.683594 160.214844 C 193.511719 143.792969 208.398438 117.027344 212.53125 109.574219 C 225.050781 109.605469 264.546875 115.984375 264.546875 115.984375 C 268.785156 105.917969 269.335938 92.859375 269.355469 86.824219 C 276.011719 88.253906 283.695312 90.199219 289.183594 92.164062 C 306.21875 110.804688 318.09375 133.996094 322.984375 159.273438 Z M 214.691406 50.046875 C 240.019531 55.121094 262.472656 66.960938 280.421875 83.394531 C 274.847656 81.949219 269.523438 80.839844 266.441406 80.242188 C 252.769531 66.046875 227.503906 58.1875 219.515625 55.976562 C 218.386719 54.269531 216.820312 52.191406 214.691406 50.046875 Z M 51.117188 165.332031 C 52.847656 153.421875 56.09375 142.085938 60.589844 131.480469 L 61.144531 139.71875 L 61.003906 139.679688 C 60.550781 141.226562 50.390625 175.261719 52.730469 205.058594 C 52.199219 205.195312 51.671875 205.335938 51.140625 205.476562 C 49.210938 192.488281 49.113281 178.996094 51.117188 165.332031 Z M 153.367188 318.996094 C 135.644531 314.476562 119.460938 306.582031 105.433594 296.128906 C 116.847656 303.375 133.359375 312.308594 152.875 318.339844 C 153.042969 318.554688 153.191406 318.765625 153.367188 318.996094 Z M 156.300781 313.238281 C 119.460938 302.308594 92.5625 279.757812 92.296875 279.539062 C 92.296875 279.539062 81.683594 253.789062 79.042969 245.867188 C 86.636719 242.085938 101.675781 234.476562 111.503906 228.8125 C 121.195312 235.40625 155.757812 253.921875 162.476562 257.492188 C 164.546875 266.417969 170.132812 289.523438 175.445312 303.640625 C 171.171875 306.601562 156.300781 313.238281 156.300781 313.238281 Z M 108.503906 223.78125 C 100.007812 228.617188 86.375 235.65625 75.945312 240.847656 C 68.84375 234.597656 62.65625 219.949219 59.296875 210.839844 C 54.800781 181.011719 66.515625 141.78125 66.632812 141.386719 C 66.632812 141.386719 82.523438 129.167969 88.78125 126.117188 C 93.15625 134.3125 104.207031 153.980469 116.292969 168.007812 C 111.207031 178.816406 107.804688 213.042969 108.503906 223.78125 Z M 186.53125 69.746094 C 158.871094 66.085938 133.441406 71.339844 122.898438 74.054688 L 115.394531 67.835938 C 140.683594 52.257812 171.078125 44.714844 202.570312 48.179688 C 207.105469 50.707031 210.304688 53.710938 212.472656 56.316406 C 202.617188 59.113281 191.867188 66.039062 186.53125 69.746094 Z M 121.332031 164.847656 C 109.195312 150.976562 97.695312 130.308594 93.609375 122.683594 C 98.292969 108.128906 114.570312 88.707031 121.953125 80.402344 C 130.1875 78.144531 158.65625 71.34375 188.519531 75.984375 C 195.21875 83.316406 203.90625 99.425781 207.554688 106.464844 C 203.609375 113.574219 188.175781 141.304688 178.296875 157.761719 C 167.574219 158.464844 132.261719 163.332031 121.332031 164.847656 Z M 222.386719 308.171875 C 212.367188 308.578125 195.433594 308.332031 181.59375 303.371094 C 176.753906 291.121094 170.824219 267.550781 168.042969 255.503906 C 177.082031 248.203125 195.589844 227.566406 202.410156 219.859375 C 208.167969 220.386719 243.824219 223.648438 264.613281 225.375 C 271.476562 237.214844 274.078125 253.351562 274.917969 260.238281 C 268.964844 269.324219 248.824219 297.59375 222.386719 308.171875 Z M 166.914062 326.460938 C 244.683594 337.851562 317.226562 283.808594 328.613281 205.988281 C 340.003906 128.171875 285.988281 55.589844 208.207031 44.203125 C 201.648438 43.238281 195.117188 42.753906 188.652344 42.699219 C 188.492188 42.679688 188.335938 42.644531 188.175781 42.628906 L 188.164062 42.699219 C 118.335938 42.351562 56.914062 93.585938 46.507812 164.664062 C 35.117188 242.480469 89.136719 315.054688 166.914062 326.460938 " fill-opacity="1" fill-rule="nonzero"/></g></svg>