<svg width="50" height="50" viewBox="0 0 50 50" fill="none" xmlns="http://www.w3.org/2000/svg">
<path d="M46.2166 4.60264L45.9952 4.19356L45.5863 3.97217C40.7065 1.33125 34.6435 0.601762 28.5141 1.91807C22.2789 3.25723 16.4255 6.52266 11.5868 11.3614C6.74817 16.2002 3.48264 22.0535 2.14348 28.2887C0.827466 34.4179 1.55686 40.4809 4.19768 45.3608L4.41907 45.7699L4.82815 45.9913C8.12131 47.7735 11.9523 48.6852 15.9799 48.6852C17.9703 48.6812 19.9547 48.4668 21.9 48.0453C28.1352 46.7063 33.9885 43.4407 38.8272 38.602C43.6658 33.7632 46.9321 27.9097 48.2707 21.6745C49.5871 15.5452 48.8576 9.48194 46.2166 4.60264ZM43.6854 6.50342C45.617 10.2981 46.2088 14.6877 45.5799 19.1523L31.0365 4.60889C35.5012 3.97999 39.891 4.57178 43.6854 6.50342ZM6.72913 43.4598C4.75627 39.5841 4.18108 35.088 4.87668 30.5249L19.6639 45.312C15.1009 46.0078 10.6047 45.4325 6.72913 43.4598ZM36.6177 36.392C32.6691 40.3406 28.013 43.0901 23.2719 44.5008L5.68801 26.917C7.09876 22.1758 9.84817 17.5197 13.7968 13.5711C17.8159 9.55196 22.5681 6.77588 27.3968 5.38877L44.8001 22.7925C43.413 27.6208 40.6369 32.3726 36.6177 36.392Z" fill="#FF5722"/>
<path d="M33.9166 18.2926L31.707 16.083L29.6868 18.1031L26.8854 15.3018L24.6758 17.5113L27.4771 20.3128L24.9993 22.7906L22.1979 19.9893L19.9883 22.1988L22.7896 25.0003L20.3118 27.4781L17.5104 24.6768L15.3008 26.8863L18.1021 29.6878L16.082 31.708L18.2916 33.9176L20.3118 31.8975L23.1133 34.6988L25.3229 32.4893L22.5215 29.6878L24.9993 27.21L27.8008 30.0113L30.0104 27.8018L27.209 25.0003L29.6868 22.5225L32.4883 25.3238L34.6979 23.1143L31.8965 20.3128L33.9166 18.2926Z" fill="#FF5722"/>
</svg>
