<svg width="50" height="50" viewBox="0 0 50 50" fill="none" xmlns="http://www.w3.org/2000/svg">
<g clip-path="url(#clip0_1470_336)">
<path d="M25 0C27.2949 0 29.5085 0.292969 31.6406 0.878906C33.7728 1.46484 35.7666 2.30306 37.6221 3.39355C39.4775 4.48405 41.1621 5.78613 42.6758 7.2998C44.1895 8.81348 45.4915 10.5062 46.582 12.3779C47.6725 14.2497 48.5107 16.2435 49.0967 18.3594C49.6826 20.4753 49.9837 22.6888 50 25C50 27.2949 49.707 29.5085 49.1211 31.6406C48.5352 33.7728 47.6969 35.7666 46.6064 37.6221C45.516 39.4775 44.2139 41.1621 42.7002 42.6758C41.1865 44.1895 39.4938 45.4915 37.6221 46.582C35.7503 47.6725 33.7565 48.5107 31.6406 49.0967C29.5247 49.6826 27.3112 49.9837 25 50C22.7051 50 20.4915 49.707 18.3594 49.1211C16.2272 48.5352 14.2334 47.6969 12.3779 46.6064C10.5225 45.516 8.83789 44.2139 7.32422 42.7002C5.81055 41.1865 4.50846 39.4938 3.41797 37.6221C2.32747 35.7503 1.48926 33.7646 0.90332 31.665C0.317383 29.5654 0.016276 27.3438 0 25C0 22.7051 0.292969 20.4915 0.878906 18.3594C1.46484 16.2272 2.30306 14.2334 3.39355 12.3779C4.48405 10.5225 5.78613 8.83789 7.2998 7.32422C8.81348 5.81055 10.5062 4.50846 12.3779 3.41797C14.2497 2.32747 16.2354 1.48926 18.335 0.90332C20.4346 0.317383 22.6562 0.016276 25 0ZM25 3.125C22.998 3.125 21.0693 3.38542 19.2139 3.90625C17.3584 4.42708 15.6169 5.15951 13.9893 6.10352C12.3617 7.04753 10.8805 8.19499 9.5459 9.5459C8.21126 10.8968 7.07194 12.3698 6.12793 13.9648C5.18392 15.5599 4.44336 17.3014 3.90625 19.1895C3.36914 21.0775 3.10872 23.0143 3.125 25C3.125 26.0579 3.19824 27.0996 3.34473 28.125C5.3304 28.0924 7.11263 27.6937 8.69141 26.9287C10.2702 26.1637 11.6862 25.1628 12.9395 23.9258C14.1927 22.6888 15.2588 21.2728 16.1377 19.6777C17.0166 18.0827 17.7897 16.4307 18.457 14.7217C18.8477 13.6475 19.2871 12.5895 19.7754 11.5479C20.2637 10.5062 20.8171 9.48893 21.4355 8.49609C22.054 7.50326 22.7132 6.55924 23.4131 5.66406C24.113 4.76888 24.9105 3.93066 25.8057 3.14941C25.6755 3.13314 25.5452 3.125 25.415 3.125C25.2848 3.125 25.1465 3.125 25 3.125ZM4.02832 31.2256C4.54915 32.9834 5.28158 34.6436 6.22559 36.2061C7.1696 37.7686 8.27637 39.1846 9.5459 40.4541C10.8154 41.7236 12.2314 42.8304 13.7939 43.7744C15.3564 44.7184 17.0166 45.4508 18.7744 45.9717C18.9046 43.693 19.4092 41.6423 20.2881 39.8193C21.167 37.9964 22.3145 36.377 23.7305 34.9609C25.1465 33.5449 26.7578 32.3161 28.5645 31.2744C30.3711 30.2327 32.2673 29.3457 34.2529 28.6133C35.3271 28.2227 36.4502 27.7344 37.6221 27.1484C38.7939 26.5625 39.9251 25.8952 41.0156 25.1465C42.1061 24.3978 43.1071 23.5596 44.0186 22.6318C44.93 21.7041 45.6624 20.7194 46.2158 19.6777C45.7275 17.7246 44.9951 15.8936 44.0186 14.1846C43.042 12.4756 41.8538 10.9294 40.4541 9.5459C39.0544 8.16243 37.5081 6.98242 35.8154 6.00586C34.1227 5.0293 32.2917 4.28874 30.3223 3.78418C29.2643 4.33757 28.2796 5.06999 27.3682 5.98145C26.4567 6.8929 25.6266 7.89388 24.8779 8.98438C24.1292 10.0749 23.4538 11.2061 22.8516 12.3779C22.2493 13.5498 21.7611 14.6729 21.3867 15.7471C20.6543 17.7327 19.7673 19.6289 18.7256 21.4355C17.6839 23.2422 16.4551 24.8454 15.0391 26.2451C13.623 27.6449 12.0036 28.7923 10.1807 29.6875C8.35775 30.5827 6.30697 31.0954 4.02832 31.2256ZM25 46.875C27.002 46.875 28.9307 46.6146 30.7861 46.0938C32.6416 45.5729 34.3831 44.8405 36.0107 43.8965C37.6383 42.9525 39.1195 41.805 40.4541 40.4541C41.7887 39.1032 42.9281 37.6302 43.8721 36.0352C44.8161 34.4401 45.5566 32.6986 46.0938 30.8105C46.6309 28.9225 46.8913 26.9857 46.875 25V24.6094C46.875 24.4792 46.8669 24.3408 46.8506 24.1943C46.0856 25.057 45.2555 25.8464 44.3604 26.5625C43.4652 27.2786 42.5212 27.946 41.5283 28.5645C40.5355 29.1829 39.5182 29.7282 38.4766 30.2002C37.4349 30.6722 36.3688 31.1198 35.2783 31.543C33.5693 32.1777 31.9173 32.9427 30.3223 33.8379C28.7272 34.7331 27.3112 35.8073 26.0742 37.0605C24.8372 38.3138 23.8363 39.7217 23.0713 41.2842C22.3063 42.8467 21.9076 44.637 21.875 46.6553C22.9004 46.8018 23.9421 46.875 25 46.875Z" fill="#FF5722"/>
</g>
<defs>
<clipPath id="clip0_1470_336">
<rect width="50" height="50" fill="white"/>
</clipPath>
</defs>
</svg>
