<svg width="50" height="50" viewBox="0 0 50 50" fill="none" xmlns="http://www.w3.org/2000/svg">
<path d="M28.7354 10.6055L22.8203 12.3232M30.9697 15.2451L25.9404 18.7998M34.7549 19.0303L31.2002 24.0596M39.3945 21.2646L37.6768 27.1797" stroke="#FF5722" stroke-width="3.125" stroke-linecap="round" stroke-linejoin="round"/>
<path d="M25 43.75C35.3553 43.75 43.75 35.3553 43.75 25C43.75 14.6447 35.3553 6.25 25 6.25C14.6447 6.25 6.25 14.6447 6.25 25C6.25 35.3553 14.6447 43.75 25 43.75Z" stroke="#FF5722" stroke-width="3.125" stroke-linecap="round" stroke-linejoin="round"/>
<path d="M42.2783 24.9072C37.7602 24.5438 33.5267 22.5561 30.3612 19.3118C27.1958 16.0675 25.3127 11.7864 25.0605 7.26074M10.5986 28.7412L12.3164 22.8262M15.2383 30.9756L18.793 25.9463M19.0234 34.7607L24.0527 31.2061M21.2578 39.4004L27.1729 37.6826M24.9014 42.3447C24.5517 37.8158 22.5698 33.5679 19.324 30.3901C16.0782 27.2124 11.7892 25.321 7.25391 25.0674" stroke="#FF5722" stroke-width="3.125" stroke-linecap="round" stroke-linejoin="round"/>
</svg>
