<svg width="50" height="50" viewBox="0 0 50 50" fill="none" xmlns="http://www.w3.org/2000/svg">
<path d="M25 10.9375C14.1297 10.9375 3.125 13.6219 3.125 18.75V31.25C3.125 36.3781 14.1297 39.0625 25 39.0625C35.8703 39.0625 46.875 36.3781 46.875 31.25V18.75C46.875 13.6219 35.8703 10.9375 25 10.9375ZM25 14.0625C36.6312 14.0625 43.75 17.0969 43.75 18.75C43.75 20.1969 38.2984 22.7 29.1438 23.3031C27.7644 23.3937 26.3824 23.4385 25 23.4375C13.3688 23.4375 6.25 20.4031 6.25 18.75C6.25 17.0969 13.3688 14.0625 25 14.0625ZM6.25 22.9797C6.34375 23.0344 6.45938 23.0797 6.55469 23.1328C7.06815 23.4155 7.59711 23.669 8.13906 23.8922C8.67969 24.1172 9.24219 24.3328 9.84844 24.5297C11.1187 24.9438 12.5438 25.2797 14.0375 25.5672C14.4891 25.6531 14.9547 25.7234 15.4203 25.7969C16.7474 26.0125 18.1187 26.1812 19.5344 26.3031C21.3312 26.4562 23.1578 26.5625 25 26.5625C26.8422 26.5625 28.6703 26.4562 30.4656 26.3031C31.8429 26.1864 33.2152 26.0176 34.5797 25.7969C35.0453 25.7234 35.5109 25.6531 35.9625 25.5672C37.4563 25.2797 38.8813 24.9422 40.1516 24.5297C40.8917 24.2854 41.6191 24.0043 42.3312 23.6875C42.7098 23.5175 43.0815 23.3324 43.4453 23.1328C43.5406 23.0797 43.6578 23.0344 43.75 22.9797V31.25C43.75 32.9031 36.6312 35.9375 25 35.9375C13.3688 35.9375 6.25 32.9031 6.25 31.25V22.9797Z" fill="#FF5722"/>
</svg>
