<svg width="50" height="50" viewBox="0 0 50 50" fill="none" xmlns="http://www.w3.org/2000/svg">
<path d="M10.4167 16.6667L7.5 13.75M16.6667 22.9167L18.75 25M25 31.25L27.0833 33.3333M33.3333 39.5833L36.25 42.5" stroke="#FF5722" stroke-width="4.16667" stroke-linecap="round" stroke-linejoin="round"/>
<path d="M25.0013 45.8337C36.5072 45.8337 45.8346 36.5063 45.8346 25.0003C45.8346 13.4944 36.5072 4.16699 25.0013 4.16699C13.4954 4.16699 4.16797 13.4944 4.16797 25.0003C4.16797 36.5063 13.4954 45.8337 25.0013 45.8337Z" stroke="#FF5722" stroke-width="4.16667" stroke-linecap="round" stroke-linejoin="round"/>
<path d="M16.6667 10.4167L13.75 7.5M22.9167 16.6667L25 18.75M31.25 25L33.3333 27.0833M42.5 36.25L39.5833 33.3333" stroke="#FF5722" stroke-width="4.16667" stroke-linecap="round" stroke-linejoin="round"/>
</svg>
